<?xml version="1.0" encoding="UTF-8" standalone="no"?>
<svg
   xmlns:dc="http://purl.org/dc/elements/1.1/"
   xmlns:cc="http://creativecommons.org/ns#"
   xmlns:rdf="http://www.w3.org/1999/02/22-rdf-syntax-ns#"
   xmlns:svg="http://www.w3.org/2000/svg"
   xmlns="http://www.w3.org/2000/svg"
   xmlns:sodipodi="http://sodipodi.sourceforge.net/DTD/sodipodi-0.dtd"
   xmlns:inkscape="http://www.inkscape.org/namespaces/inkscape"
   aria-hidden="true"
   focusable="false"
   data-prefix="fas"
   data-icon="car"
   class="svg-inline--fa fa-car fa-w-16"
   role="img"
   viewBox="0 0 512 512"
   version="1.1"
   id="svg835"
   sodipodi:docname="car-solid1.svg"
   inkscape:version="1.0 (4035a4f, 2020-05-01)">
  <metadata
     id="metadata841">
    <rdf:RDF>
      <cc:Work
         rdf:about="">
        <dc:format>image/svg+xml</dc:format>
        <dc:type
           rdf:resource="http://purl.org/dc/dcmitype/StillImage" />
        <dc:title />
      </cc:Work>
    </rdf:RDF>
  </metadata>
  <defs
     id="defs839" />
  <sodipodi:namedview
     inkscape:document-rotation="0"
     pagecolor="#ffffff"
     bordercolor="#666666"
     borderopacity="1"
     objecttolerance="10"
     gridtolerance="10"
     guidetolerance="10"
     inkscape:pageopacity="0"
     inkscape:pageshadow="2"
     inkscape:window-width="1280"
     inkscape:window-height="706"
     id="namedview837"
     showgrid="false"
     inkscape:zoom="10.562408"
     inkscape:cx="15.568824"
     inkscape:cy="17.325373"
     inkscape:window-x="0"
     inkscape:window-y="23"
     inkscape:window-maximized="0"
     inkscape:current-layer="svg835" />
  <path
     fill="currentColor"
     d="M 18.297688,16.759068 H 16.107099 L 15.498256,15.236961 C 14.872582,13.672046 13.379381,12.661089 11.693721,12.661089 H 7.0469055 c -1.6852939,0 -3.178861,1.010957 -3.8049005,2.575872 L 2.6331624,16.759068 H 0.44293883 c -0.28576087,0 -0.49541642,0.268564 -0.42589713,0.545543 l 0.2195346,0.878139 c 0.0486635,0.195386 0.22429119,0.332595 0.42589713,0.332595 H 1.3968167 c -0.49139164,0.42919 -0.80788736,1.053034 -0.80788736,1.756277 v 1.756276 c 0,0.589817 0.22538886,1.122188 0.58542556,1.534181 v 1.978373 c 0,0.646529 0.5243219,1.170851 1.1708513,1.170851 h 1.1708512 c 0.6465294,0 1.1708512,-0.524322 1.1708512,-1.170851 v -1.170851 h 9.3668094 v 1.170851 c 0,0.646529 0.524322,1.170851 1.170851,1.170851 h 1.170852 c 0.646529,0 1.170851,-0.524322 1.170851,-1.170851 v -1.978373 c 0.360037,-0.411627 0.585425,-0.943998 0.585425,-1.534181 v -1.756276 c 0,-0.703243 -0.316495,-1.327087 -0.807521,-1.756277 h 0.734343 c 0.201606,0 0.377234,-0.137209 0.425897,-0.332595 l 0.219535,-0.878139 c 0.06915,-0.276979 -0.140502,-0.545543 -0.426263,-0.545543 z M 5.4161293,16.106684 c 0.2667346,-0.666653 0.9125322,-1.103893 1.6307762,-1.103893 h 4.6468155 c 0.718244,0 1.364042,0.43724 1.630776,1.103893 l 0.729221,1.823235 H 4.6869086 Z m -1.9000719,5.913897 c -0.7025108,0 -1.1708512,-0.466877 -1.1708512,-1.167193 0,-0.700315 0.4683404,-1.167192 1.1708512,-1.167192 0.7025107,0 1.7562768,1.050473 1.7562768,1.750788 0,0.700316 -1.0537661,0.583597 -1.7562768,0.583597 z m 11.7085116,0 c -0.70251,0 -1.756276,0.116719 -1.756276,-0.583597 0,-0.700315 1.053766,-1.750788 1.756276,-1.750788 0.702511,0 1.170852,0.466877 1.170852,1.167192 0,0.700316 -0.468341,1.167193 -1.170852,1.167193 z"
     id="path833"
     style="fill:#7510f7;fill-opacity:1;stroke-width:0.0365891" />
  <ellipse
     style="fill:#dc04b4;fill-opacity:1;stroke:#000000;stroke-width:0;stroke-miterlimit:4;stroke-dasharray:none;stroke-opacity:1"
     id="path843"
     cx="15.307852"
     cy="13.239166"
     rx="2.8413963"
     ry="2.527863" />
</svg>
