<?xml version="1.0" encoding="UTF-8" standalone="no"?>
<svg
   xmlns:dc="http://purl.org/dc/elements/1.1/"
   xmlns:cc="http://creativecommons.org/ns#"
   xmlns:rdf="http://www.w3.org/1999/02/22-rdf-syntax-ns#"
   xmlns:svg="http://www.w3.org/2000/svg"
   xmlns="http://www.w3.org/2000/svg"
   xmlns:sodipodi="http://sodipodi.sourceforge.net/DTD/sodipodi-0.dtd"
   xmlns:inkscape="http://www.inkscape.org/namespaces/inkscape"
   version="1.1"
   id="svg833"
   xml:space="preserve"
   width="4273.3335"
   height="2666.6667"
   viewBox="0 0 4273.3335 2666.6667"
   sodipodi:docname="10109.svg"
   inkscape:version="1.0 (4035a4f, 2020-05-01)"><metadata
     id="metadata839"><rdf:RDF><cc:Work
         rdf:about=""><dc:format>image/svg+xml</dc:format><dc:type
           rdf:resource="http://purl.org/dc/dcmitype/StillImage" /><dc:title></dc:title></cc:Work></rdf:RDF></metadata><defs
     id="defs837"><clipPath
       clipPathUnits="userSpaceOnUse"
       id="clipPath961"><path
         d="m 9594.2,2190.5 c -216.66,0 -392.29,176.2 -392.29,393.6 0,217.4 175.63,393.7 392.29,393.7 216.66,0 392.3,-176.3 392.3,-393.7 0,-217.4 -175.64,-393.6 -392.3,-393.6"
         id="path959" /></clipPath></defs><sodipodi:namedview
     inkscape:document-rotation="0"
     pagecolor="#ffffff"
     bordercolor="#666666"
     borderopacity="1"
     objecttolerance="10"
     gridtolerance="10"
     guidetolerance="10"
     inkscape:pageopacity="0"
     inkscape:pageshadow="2"
     inkscape:window-width="1228"
     inkscape:window-height="671"
     id="namedview835"
     showgrid="false"
     inkscape:zoom="0.17099999"
     inkscape:cx="2109.6406"
     inkscape:cy="1417.2643"
     inkscape:window-x="0"
     inkscape:window-y="23"
     inkscape:window-maximized="0"
     inkscape:current-layer="g849" /><g
     id="g841"
     inkscape:groupmode="layer"
     inkscape:label="ink_ext_XXXXXX"
     transform="matrix(1.3333333,0,0,-1.3333333,0,2666.6667)"><g
       id="g843"
       transform="scale(0.1)"><g
         id="g845"
         transform="scale(1.96626)"><path
           d="M 16300,0 H 0 V 10171.6 H 16300 V 0"
           style="fill:#ffffff;fill-opacity:1;fill-rule:nonzero;stroke:none"
           id="path847" /></g><g
         id="g849"
         transform="scale(1.88003)"><path
           d="M 16300,1043.65 H 7049.46 c 223.83,35.27 398.66,218.62 421.75,447.02 1.75,16.96 2.6,34.15 2.6,51.59 v 6.7 h 3793.09 c 79.6,0 141.3,65.06 141.4,142.34 0,6.39 -0.4,12.82 -1.3,19.36 -3.3,25.11 -5.6,50.48 -6.9,76.17 483.3,8.51 1316.9,25.85 1779.3,35.59 -1,-16.7 -2.3,-33.3 -4,-49.79 0,-0.42 -0.1,-0.85 -0.1,-1.22 0,-0.06 0,-0.06 0,-0.06 -0.1,-1.17 -0.2,-2.34 -0.4,-3.51 -0.7,-6.64 -1.1,-13.19 -1.1,-19.68 -0.1,-97.6 78.2,-179.25 178.2,-179.25 h 688.9 c 125.3,0 226.8,101.54 226.8,226.81 v 37.33 140.91 c 0,37.66 -22.4,70.21 -54.7,84.89 v 360.42 c 0,79.73 -5.1,159.47 -17.1,238.35 -70.2,462.6 -296.9,559.77 -967.8,693.92 -740.3,148.08 -1680,630.84 -1680,630.84 0,0 -1602.89,785.31 -1995.54,875.47 -234.15,53.72 -672.07,66.27 -1159.35,66.27 -299.72,0 -618.07,-4.79 -919.4,-7.55 v 2744.97 h 204.15 V 6477.73 h 272.81 v -405.56 h 188.19 v -829.33 h 225.74 v 2659.83 h 122.34 v 416.52 h 1072.43 v -416.52 h 122.34 V 5928.9 l 357.49,9.41 v 1262.86 h 1016 l 45.6,-2373.86 152,9.42 v 801.28 h 329.3 v 630.31 h 197.5 v 423.35 h 771.4 v -423.35 h 197.6 V 5638.01 H 13078 V 4158.87 l 282.2,9.41 v 1466.98 h 943.5 v -1380.17 -224.2 h 576.2 v 696.27 h 696.3 V 3163.46 H 16300 V 1043.65"
           style="fill:#83858c;fill-opacity:0.31000006;fill-rule:nonzero;stroke:none"
           id="path851" /></g><path
         d="m 7544.11,2049.6 c 0,0 -663.19,3826.8 -931.36,4222 -203.57,300 -434.37,-70.5 -604.78,-440.9 -139.83,-304 -239.01,-607.9 -249.13,-541.6 C 5546.59,6680.2 5591,8434.7 4598.3,8700.6 4034,8851.7 4635.61,7390.3 4565.53,7013.7 4495.45,6637.2 3556.72,7981.5 2978.56,8692.8 2400.41,9404 2046.39,9011.6 2381.53,8148.7 2705.6,7314.4 3879.59,6336.7 3616.79,6253 c -115.43,-36.8 -464.48,166.9 -838.44,370.5 -477.44,260 -995.51,520 -1120.04,279.8 -272.29,-525.3 1997.73,-1452.4 1769.97,-1557 -90.16,-41.4 -314.08,10.7 -551.73,62.7 -362.71,79.4 -757.41,158.8 -757.41,-93.9 0,-418.4 1494.28,-523 1455.41,-703.9 -29.84,-138.9 -256.61,-43.3 -494.63,52.3 -263.93,106 -541.71,212 -580.26,-1.7 -74.99,-415.7 1274.23,-447.2 1227.1,-772.4 -27.08,-186.8 -366.9,8.8 -428.37,-248.1 C 3158.23,3055.5 5284.3,2234.8 5284.3,2234.8 l 2259.81,-185.2"
         style="fill:#3c8f7c;fill-opacity:1;fill-rule:nonzero;stroke:none"
         id="path853" /><path
         d="m 8602.14,1950.6 c -269.82,351 -1863.63,2314.4 -2828.38,2627.8 -1064.92,345.9 -61.24,-1028 -61.24,-1028 0,0 -1889.14,2072.7 -2582.39,1885.9 -635.48,-171.3 0,-1456.1 0,-1456.1 0,0 -715.74,711.4 -1583.71,711.4 -844.744,0 613.44,-2605.9 690.85,-2741 h 6364.87"
         style="fill:#96d9c9;fill-opacity:1;fill-rule:nonzero;stroke:none"
         id="path855" /><path
         d="m 1998.83,3345.1 c -5.13,-32.5 -38.81,-126.7 -18.03,-219.7 12.31,-91.8 79.09,-182.4 79.58,-177.9 5.74,0.3 -104.1,29.8 -178.38,124.2 -79.49,86.7 -123.41,238.3 -105.8,303.7 18.71,137.9 132.96,204.9 180.14,164.6 48.45,-39.3 49.75,-123.2 42.49,-194.9"
         style="fill:#50bfa5;fill-opacity:1;fill-rule:nonzero;stroke:none"
         id="path857" /><path
         d="m 2693.16,3095.6 c -5.12,-32.4 -38.8,-126.6 -18.03,-219.7 12.32,-91.8 79.09,-182.4 79.58,-177.9 5.74,0.3 -104.1,29.9 -178.38,124.3 -79.48,86.7 -123.4,238.2 -105.8,303.6 18.71,137.9 132.96,204.9 180.15,164.7 48.45,-39.3 49.74,-123.3 42.48,-195"
         style="fill:#50bfa5;fill-opacity:1;fill-rule:nonzero;stroke:none"
         id="path859" /><path
         d="m 3398.67,2780.1 c -5.13,-32.5 -38.81,-126.7 -18.04,-219.7 12.32,-91.8 79.1,-182.4 79.59,-177.9 5.74,0.3 -104.1,29.8 -178.38,124.2 -79.48,86.7 -123.41,238.3 -105.8,303.7 18.71,137.9 132.95,204.9 180.15,164.6 48.44,-39.2 49.74,-123.2 42.48,-194.9"
         style="fill:#50bfa5;fill-opacity:1;fill-rule:nonzero;stroke:none"
         id="path861" /><path
         d="m 1791.55,2694.1 c 14.27,26.8 41.84,115.1 108.91,172 60.12,60.8 159.74,90.1 157.58,86.6 4.07,-3.5 -93.3,36.3 -200.56,8.3 -106.78,-19.4 -223.44,-106.5 -246.85,-164.5 -62.91,-112.1 -16,-225.5 41.19,-222.2 57.54,1.8 105.19,62.9 139.73,119.8"
         style="fill:#50bfa5;fill-opacity:1;fill-rule:nonzero;stroke:none"
         id="path863" /><path
         d="m 2513.77,2437.6 c 14.26,26.8 41.84,115.1 108.91,172 60.12,60.8 159.73,90.1 157.58,86.6 4.08,-3.5 -93.3,36.3 -200.56,8.3 -106.78,-19.4 -223.45,-106.5 -246.85,-164.5 -62.9,-112.1 -16,-225.5 41.18,-222.2 57.55,1.8 105.2,62.9 139.74,119.8"
         style="fill:#50bfa5;fill-opacity:1;fill-rule:nonzero;stroke:none"
         id="path865" /><path
         d="m 1324.87,3298.9 c 2.86,-19.3 0.52,-78.6 28.79,-127.6 23.26,-49.7 77.13,-89 76.6,-86.4 3.2,1.2 -64.19,-1.7 -122.98,38.4 -60.35,34.9 -112.1,112.8 -113.75,152.9 -13.89,81.4 38.85,139.7 72.71,125.4 34.38,-13.6 50.01,-60.8 58.63,-102.7"
         style="fill:#50bfa5;fill-opacity:1;fill-rule:nonzero;stroke:none"
         id="path867" /><path
         d="m 1211.79,2973.2 c 12.48,14.9 41.42,66.7 91.03,93.5 45.75,30.2 112.17,35.4 110.35,33.5 2.1,-2.7 -53.81,35.1 -124.85,31.8 -69.6,2 -154.32,-37.3 -176.66,-70.6 -54.26,-62 -39.73,-139.5 -3.4,-145 36.37,-6.5 74.35,25.6 103.53,56.8"
         style="fill:#50bfa5;fill-opacity:1;fill-rule:nonzero;stroke:none"
         id="path869" /><path
         d="M 2815.92,6039.3 C 3587.77,4829.8 4159.65,3378.5 4481.73,1951 h 83.26 c -320.74,1397.6 -919.18,2860.8 -1689.76,4069 -179.08,280.8 -372.47,613.9 -707.78,723.5 -6.46,2.1 -8.92,-7.8 -2.75,-10.1 306.27,-115.8 483.66,-431.5 651.22,-694.1"
         style="fill:#50bfa5;fill-opacity:1;fill-rule:nonzero;stroke:none"
         id="path871" /><path
         d="m 4325.28,1951 c -862.52,1176.9 -1949.29,2322.2 -3196.14,3268.2 -12.45,9.4 -29.25,-12.4 -16.72,-22 C 2294.97,4285.1 3361.67,3168.1 4242.03,1951 h 83.25"
         style="fill:#50bfa5;fill-opacity:1;fill-rule:nonzero;stroke:none"
         id="path873" /><path
         d="m 2745.38,6789.5 c -19.87,-29.3 -95.93,-105.8 -118.28,-206.3 -30.02,-95.3 -6.31,-214.6 -3.77,-210.4 5.73,-2.4 -88,77.1 -117.29,203.6 -37.91,121.3 -11.38,289.6 35.78,345.4 81.45,126 223.75,138.8 251.38,77.7 29.33,-60.7 -7.86,-143.3 -47.82,-210"
         style="fill:#50bfa5;fill-opacity:1;fill-rule:nonzero;stroke:none"
         id="path875" /><path
         d="m 2560.72,5709.8 c 28.82,20.5 103.52,98.3 203.19,122.7 94.38,32 213.73,10.6 209.62,7.9 2.47,-5.7 -78.62,86.8 -205.23,113.7 -121.63,35.6 -288.79,5.7 -343.42,-42.7 -123.98,-84.2 -133.9,-227.2 -72.45,-253.7 61.06,-28.2 142.62,10.7 208.29,52.1"
         style="fill:#50bfa5;fill-opacity:1;fill-rule:nonzero;stroke:none"
         id="path877" /><path
         d="m 2839.38,5236.6 c 28.83,20.5 103.53,98.3 203.19,122.7 94.38,32 213.73,10.6 209.61,7.9 2.48,-5.7 -78.61,86.8 -205.22,113.7 -121.63,35.6 -288.79,5.7 -343.42,-42.7 -123.97,-84.2 -133.9,-227.2 -72.46,-253.7 61.07,-28.3 142.64,10.7 208.3,52.1"
         style="fill:#50bfa5;fill-opacity:1;fill-rule:nonzero;stroke:none"
         id="path879" /><path
         d="m 1845.42,4139 c 28.81,20.5 103.52,98.3 203.18,122.7 94.38,32 213.73,10.6 209.62,7.9 2.47,-5.7 -78.62,86.8 -205.23,113.7 -121.63,35.6 -288.79,5.7 -343.42,-42.7 -123.97,-84.2 -133.9,-227.2 -72.46,-253.7 61.07,-28.2 142.64,10.7 208.31,52.1"
         style="fill:#50bfa5;fill-opacity:1;fill-rule:nonzero;stroke:none"
         id="path881" /><path
         d="m 1337.6,4587.9 c 28.82,20.5 103.51,98.3 203.19,122.7 94.37,32 213.72,10.6 209.61,8 2.47,-5.7 -78.62,86.7 -205.23,113.6 -121.63,35.7 -288.79,5.7 -343.42,-42.7 -123.98,-84.2 -133.9,-227.2 -72.45,-253.7 61.06,-28.3 142.62,10.7 208.3,52.1"
         style="fill:#50bfa5;fill-opacity:1;fill-rule:nonzero;stroke:none"
         id="path883" /><path
         d="m 3135.28,6254 c -24.23,-25.8 -111.35,-89.3 -149.21,-184.9 -44.61,-89.4 -39.95,-211 -36.78,-207.3 5.29,-3.2 -74.78,90.2 -83.83,219.7 -18.38,125.8 34.27,287.8 89.6,335.4 100.23,111.5 242.76,101.6 260.44,36.9 19.43,-64.6 -30.29,-140.2 -80.22,-199.8"
         style="fill:#50bfa5;fill-opacity:1;fill-rule:nonzero;stroke:none"
         id="path885" /><path
         d="m 3545.05,5717.4 c -34.48,-18.4 -154.96,-51.7 -215.55,-142.1 -68.59,-80.5 -77.3,-218.2 -72.74,-215.4 6.45,-5.9 -85.88,132.8 -81.89,281.3 -8.53,148.3 79.25,306.4 156.64,335.7 143.27,81.3 326.56,8.7 341.61,-71.1 17.31,-80.5 -56.21,-143.5 -128.07,-188.4"
         style="fill:#50bfa5;fill-opacity:1;fill-rule:nonzero;stroke:none"
         id="path887" /><path
         d="m 3976.33,4904.6 c -37.07,-12.3 -161.4,-24.8 -236.3,-103.7 -81.1,-67.8 -112.76,-202.1 -107.8,-200.1 5.37,-6.9 -62.39,145.4 -33.57,291.1 16.45,147.7 129.47,288.7 210.67,304.5 154.85,56 323.38,-46.5 324.82,-127.7 3.58,-82.3 -79.45,-132 -157.82,-164.1"
         style="fill:#50bfa5;fill-opacity:1;fill-rule:nonzero;stroke:none"
         id="path889" /><path
         d="m 2700.13,4338.4 c -27.01,-16.9 -123.12,-50.9 -167.27,-127.9 -51.22,-69.4 -50.5,-181.9 -46.95,-179.4 5.58,-4.4 -77.39,103.2 -82.57,224.2 -15.36,120.1 47.08,253.7 108.37,282 111.92,74.3 265.14,25.8 281.9,-38.3 18.65,-64.5 -37.57,-120 -93.48,-160.6"
         style="fill:#50bfa5;fill-opacity:1;fill-rule:nonzero;stroke:none"
         id="path891" /><path
         d="m 2035.72,6599.2 c 16.15,13.4 56.95,62.7 114.84,81.5 54.44,23 125.98,15.6 123.65,13.9 1.72,-3.3 -50.28,47.9 -126.36,58.2 -73.5,15.7 -171.08,-9.3 -201.28,-40.3 -69.67,-55.3 -69.3,-140.3 -31.8,-153.3 37.35,-14 83.9,12.6 120.95,40"
         style="fill:#50bfa5;fill-opacity:1;fill-rule:nonzero;stroke:none"
         id="path893" /><path
         d="m 2190.46,6944.6 c -0.71,-21 -14.73,-83.6 5.77,-141.1 15.02,-57.3 64.56,-109.6 64.52,-106.7 3.63,0.6 -68.49,10.7 -123.1,64.9 -57.3,48.8 -97.1,141.6 -91.04,184.5 1.08,89.2 68.42,140.8 101.56,118.9 33.87,-21.1 41.28,-74.4 42.29,-120.5"
         style="fill:#50bfa5;fill-opacity:1;fill-rule:nonzero;stroke:none"
         id="path895" /><path
         d="m 971.891,5045.2 c 16.156,13.4 56.949,62.7 114.849,81.5 54.43,23 125.97,15.6 123.65,13.9 1.71,-3.3 -50.29,47.8 -126.36,58.2 -73.51,15.7 -171.085,-9.3 -201.292,-40.4 -69.668,-55.2 -69.297,-140.2 -31.797,-153.2 37.356,-14 83.907,12.6 120.95,40"
         style="fill:#50bfa5;fill-opacity:1;fill-rule:nonzero;stroke:none"
         id="path897" /><path
         d="m 1158.56,5393.5 c -2.42,-20.9 -21.49,-82 -5.76,-141 10.3,-58.4 55.4,-114.6 55.59,-111.7 3.67,0.3 -67.38,16.3 -117.39,74.8 -53.12,53.3 -85.21,149.1 -75.66,191.4 8.34,88.7 79.67,134.7 110.92,110.1 32.03,-23.8 35.07,-77.5 32.3,-123.6"
         style="fill:#50bfa5;fill-opacity:1;fill-rule:nonzero;stroke:none"
         id="path899" /><path
         d="m 1289.01,3106.3 c 222.47,-20.1 442.28,-61 658.3,-117.8 394.04,-103.5 773.07,-256.5 1146.04,-419.1 183.35,-79.9 367.9,-158.8 547.75,-246.4 84.07,-40.9 168.72,-82 246.19,-134.5 104.44,-70.8 267.42,-212.6 287.16,-235 l -85.63,-2.5 c -58.5,47.6 -273.33,229.1 -571.51,372.7 -706.63,340.4 -1440.68,689.5 -2228.82,776.2 -4.11,0.4 -3.62,6.8 0.52,6.4"
         style="fill:#50bfa5;fill-opacity:1;fill-rule:nonzero;stroke:none"
         id="path901" /><path
         d="m 9872.54,2028.2 c 209.16,179.3 335.66,369.4 303.26,558.5 -57.8,337.4 -536.71,120.6 -554.91,364.2 -31.66,423.8 1796.41,324.6 1736.01,868 -31.2,280.4 -420.1,170.8 -788.8,61.1 -329.9,-98.1 -643.57,-196.2 -670.11,-14.9 -34.72,237.1 1996.81,217 2038.11,756.1 25.1,328.5 -526.2,263.2 -1028.2,197.8 -321.7,-41.9 -623.2,-83.7 -739.5,-21.9 -297.76,158.4 2864.2,1117.8 2547.7,1822.7 -145.8,324.7 -881.4,37.2 -1556.7,-250.4 -520.6,-221.7 -1005.4,-443.3 -1156.5,-384.6 -347.26,135.1 1337.2,1273.2 1857.8,2314.7 538.5,1077.1 98.4,1619.4 -753.8,762.8 -852.2,-856.5 -2254.64,-2491.5 -2312.27,-1999 -57.64,492.4 900.33,2313.2 122.12,2176.9 -1368.99,-239.8 -1482.02,-2505 -1906.38,-4275.4 -20.44,-85.2 -126.24,324.5 -287.73,734.2 -193.72,491.5 -467.58,983 -770.35,620.1 -285.57,-342.2 244.04,-2862.2 574.17,-4290.9 h 3346.08"
         style="fill:#96d9c9;fill-opacity:1;fill-rule:nonzero;stroke:none"
         id="path903" /><g
         id="g905"
         transform="scale(1.05302)"><path
           d="m 16300,12192.7 c 0,-380.4 -308.4,-688.9 -688.9,-688.9 -380.4,0 -688.8,308.5 -688.8,688.9 0,380.5 308.4,688.9 688.8,688.9 380.5,0 688.9,-308.4 688.9,-688.9"
           style="fill:#ffffff;fill-opacity:1;fill-rule:nonzero;stroke:none"
           id="path907" /></g><g
         id="g933"
         transform="scale(1.1184)"
         style="fill:#6cd4ff;fill-opacity:1"><path
           d="m 12005.7,16249.5 v 0 l -1.9,0.6 c -16.9,6.2 -34.2,11.6 -51.7,16.7 -5.9,1.7 -11.8,3.5 -17.9,5.1 -6.2,1.6 -12.7,3.1 -19,4.6 -6.5,1.6 -13,3.1 -19.5,4.5 -6.2,1.4 -12.3,2.6 -18.5,3.8 -7,1.3 -14,2.6 -20.9,3.7 -6,1 -12,1.9 -18,2.8 -7.5,1.1 -15.1,2 -22.8,2.9 -5.6,0.6 -11.1,1.3 -16.6,1.8 -8.8,0.9 -17.6,1.5 -26.3,2.1 -4.7,0.2 -9.3,0.7 -14,0.9 -13.5,0.6 -27.1,1 -40.7,1 H 5447.26 c -14.59,0 -29.1,-0.4 -43.51,-1.1 -28.83,-1.5 -57.26,-4.4 -85.26,-8.7 -13.99,-2.1 -27.87,-4.6 -41.64,-7.4 -357.78,-73.5 -633.25,-373.7 -670.78,-744.5 -2.89,-28.5 -4.36,-57.4 -4.36,-86.7 V 4981.29 2592.53 c 0,-367.22 232.5,-679.8 557.8,-798.01 1.44,-0.45 2.91,-0.89 4.35,-1.43 16.12,-5.81 32.52,-11 49.08,-15.74 5.98,-1.69 11.93,-3.48 17.96,-5.09 6.31,-1.7 12.69,-3.22 19.06,-4.74 6.47,-1.52 12.95,-3.04 19.47,-4.47 6.15,-1.34 12.35,-2.51 18.56,-3.76 6.94,-1.25 13.93,-2.59 20.94,-3.66 5.95,-1.08 11.91,-1.97 17.9,-2.87 7.57,-1.07 15.18,-1.96 22.83,-2.86 5.54,-0.62 11.08,-1.34 16.67,-1.87 8.72,-0.81 17.5,-1.43 26.3,-1.97 4.62,-0.27 9.21,-0.72 13.86,-0.98 13.52,-0.63 27.1,-0.99 40.77,-0.99 h 6270.64 c 29.2,0 58,1.52 86.4,4.38 398,40.51 714.3,358.01 754.7,757.33 3,28.52 4.4,57.41 4.4,86.73 v 10470.27 2388.8 c 0,367.2 -232.4,679.8 -557.7,797.9"
           style="fill:#6cd4ff;fill-opacity:1;fill-rule:nonzero;stroke:none"
           id="path935" /></g><g
         id="g937"
         transform="scale(1.03906)"><path
           d="M 13107.8,3121.95 H 5394.29 V 16300 H 13107.8 V 3121.95"
           style="fill:#eafcfc;fill-opacity:1;fill-rule:nonzero;stroke:none"
           id="path939" /></g><g
         id="g941"
         transform="scale(1.03906)"><path
           d="M 12028.1,8064.09 C 11607,7550.07 11161.5,7009.1 10772.1,6537.81 L 8517.11,7790.48 10850.8,8816.5 12028.1,8064.09 m -612.5,-2146.26 -498.7,-1548.51 -4109.09,1502.03 73.86,1200.21 1371.66,602.95 3162.27,-1756.68 M 6775.97,8757.79 V 10189.8 L 8967.34,10233 10300,9075.58 8013.35,8070.35 6775.97,8757.79 m -944.09,1642.81 1207.76,1533.1 1854.85,-76.9 v -1395.7 l -3062.61,-60.5 m 1470.99,4020.6 2738.63,-1174.7 v -978 l -2738.63,113.6 v 2039.1 m 3077.13,-2626 126.3,-2594.99 -1382.35,1200.69 v 1446.4 l 1256.05,-52.1 m 2727.8,-1046.4 -2226.3,182.7 -63.5,1304.8 -547,22.7 v 889.1 l 2836.8,-1216.8 v 249.7 l -941.1,403.7 -178.1,3715.3 h -229.7 l 173.3,-3614.7 -1661.2,712.5 v 25.4 h -59.2 l -377.94,162.1 -1.74,2714.7 h -229.48 l 1.7,-2616.3 -2301.47,987.2 V 16300 h -458.93 v -1432.3 l -1449.65,621.8 v -249.6 l 1449.65,-621.8 v -1451.7 l -1449.65,676.7 v -253.2 l 1449.65,-676.7 v -857.1 l -1308.77,-1661.4 -140.88,-2.8 v -229.4 l 1152.22,22.7 V 8622.77 L 7749.58,7954.38 6487.42,7399.55 5394.29,8179.58 v -281.89 l 1032.31,-736.62 0.86,1.15 -248.63,-4040.27 h 459.79 l 154.49,2510.43 1939.34,-708.91 -221.99,-1801.52 h 231.19 l 212.02,1720.68 1892.83,-691.87 -331.4,-1028.81 h 241.1 l 306,949.99 2045.6,-747.79 v 244.36 l -1975.3,721.99 559.2,1736.37 -715.7,397.67 c 248.7,301.13 785.7,952.2 1321.6,1606.73 341.4,416.82 605.5,741.05 810.2,994.07 v 365.33 c -253.8,-315.19 -581.3,-717.66 -933.3,-1147.86 l -1199.5,766.65 -82.3,1690.84 2215.1,-181.7 v 230.2"
           style="fill:#ffffff;fill-opacity:1;fill-rule:nonzero;stroke:none"
           id="path943" /></g><path
         d="m 11393.1,4309 -4676.79,1671.3 81.9,1523.4 4102.29,1813.4 -1622.6,1390.8 v 1757.9 l -2013.34,60.6 v 1601.9 h 170.3 v -1436.7 l 2013.33,-60.5 V 10786.2 L 11216.5,9270.5 6962.66,7390.2 6893.18,6098 11450.4,4469.3 11393.1,4309"
         style="fill:#c0dde3;fill-opacity:1;fill-rule:nonzero;stroke:none"
         id="path945" /><path
         d="m 7132.48,14876.1 c 1.57,125 104.15,225 229.12,223.4 124.97,-1.6 225,-104.1 223.43,-229.1 -1.58,-125 -104.16,-225 -229.13,-223.4 -124.97,1.5 -225,104.1 -223.42,229.1 z m -223.27,-179.8 436.4,-866.2 458.08,855 c 135.62,313.6 -82.08,671.3 -423.46,685.5 -5.05,0.2 -10.12,0.4 -15.21,0.4 -5.08,0.1 -10.16,0.1 -15.21,0 -341.63,-5.6 -568.28,-357.7 -440.6,-674.7"
         style="fill:#dc04b4;fill-opacity:1;fill-rule:nonzero;stroke:none"
         id="path947" /><path
         d="m 11192.5,5354.9 c 1.6,125 104.2,225 229.2,223.5 124.9,-1.6 225,-104.2 223.4,-229.2 -1.6,-124.9 -104.2,-225 -229.2,-223.4 -124.9,1.6 -225,104.2 -223.4,229.1 m -223.2,-179.7 436.4,-866.2 458,854.9 c 135.7,313.6 -82,671.4 -423.4,685.6 -5.1,0.2 -10.1,0.3 -15.2,0.4 -5.1,0.1 -10.2,0.1 -15.2,0 -341.7,-5.6 -568.3,-357.8 -440.6,-674.7"
         style="fill:#184655;fill-opacity:1;fill-rule:nonzero;stroke:none"
         id="path949" /><g
         id="g951"
         transform="scale(1.07599)"><path
           d="M 10507.2,16140.5 H 7346.71 c -4.45,0 -8.07,3.7 -8.07,8.1 v 143.3 c 0,4.5 3.62,8.1 8.07,8.1 h 3160.49 c 4.4,0 8.1,-3.6 8.1,-8.1 v -143.3 c 0,-4.4 -3.7,-8.1 -8.1,-8.1"
           style="fill:#ffffff;fill-opacity:1;fill-rule:nonzero;stroke:none"
           id="path953" /></g><g
         id="g955"
         style="fill:#dc04b4;fill-opacity:1"><g
           id="g957"
           clip-path="url(#clipPath961)"
           style="fill:#dc04b4;fill-opacity:1"><path
             d="m 9201.91,2190.5 h 784.59 v 787.301 h -784.59 z"
             style="fill:#dc04b4;fill-opacity:1;fill-rule:nonzero;stroke:none"
             id="path963" /></g></g><path
         d="m 12763.7,3243.9 h -1587.3 l 97.3,302.3 c 602.4,-96.8 1181.6,-187.9 1496.7,-232.2 -1.7,-23.5 -4,-46.9 -6.7,-70.1 m -1837.8,0 H 9083.13 l 44.78,363.4 74.07,-19.5 c 8.12,-1.4 16.2,-2.1 24.14,-2.1 70.78,0 132.06,53.6 140.05,126.6 v 0 c 0.12,1.1 0.24,2.3 0.37,3.4 0.07,0.7 0.15,1.3 0.23,2 0.03,0.4 0.07,0.7 0.11,1 3.79,33.5 8.46,66.8 13.96,99.7 h 222.88 c 354.38,-58.4 889.78,-146.3 1431.88,-233.8 l -109.7,-340.7 m -2082.99,0 H 6897.94 l 35.36,574.5 h 1395.73 l 566.24,-149.6 -52.36,-424.9 m -2422.72,0 h -815.18 v 574.5 h 850.54 l -35.36,-574.5"
         style="fill:#c7eef1;fill-opacity:1;fill-rule:nonzero;stroke:none"
         id="path965" /><path
         d="m 11176.4,3243.9 h -250.5 l 109.7,340.7 c 79.5,-12.9 159,-25.7 238.1,-38.4 l -97.3,-302.3 m -2093.27,0 h -240.22 l 52.36,424.9 232.64,-61.5 -44.78,-363.4 m -2185.19,0 h -477.75 l 35.36,574.5 h 477.75 l -35.36,-574.5"
         style="fill:#d8f0f3;fill-opacity:1;fill-rule:nonzero;stroke:none"
         id="path967" /><g
         id="g969"
         transform="scale(1.03906)"><path
           d="m 13107.8,15600.7 h -1085.7 l -33.5,699.3 h 1119.2 v -699.3 m -1315.4,0 H 9832.51 l -0.39,699.3 h 1926.78 l 33.5,-699.3 m -2189.31,0 H 7302.87 v 699.3 h 2299.77 l 0.45,-699.3 m -2759.15,0 H 5394.29 v 699.3 h 1449.65 v -699.3"
           style="fill:#c7eef1;fill-opacity:1;fill-rule:nonzero;stroke:none"
           id="path971" /></g><g
         id="g973"
         transform="scale(1.03906)"><path
           d="m 12022.1,15600.7 h -229.7 l -33.5,699.3 h 229.7 l 33.5,-699.3 m -2189.59,0 h -229.42 l -0.45,699.3 h 229.48 l 0.39,-699.3 m -2529.64,0 h -458.93 v 699.3 h 458.93 v -699.3"
           style="fill:#d8f0f3;fill-opacity:1;fill-rule:nonzero;stroke:none"
           id="path975" /></g><g
         id="g977"
         transform="scale(1.51968)"><path
           d="m 16178.2,7057.07 h -1948.1 c -67.3,0 -121.9,-54.74 -121.9,-122.25 v -806.69 c 0,-67.52 54.6,-122.26 121.9,-122.26 h 1533.7 c 62.1,-86.93 174.6,-242.56 184.5,-242.56 9.3,0 -8.6,147.01 -21.1,242.56 h 251 c 67.3,0 121.8,54.74 121.8,122.26 v 806.69 c 0,67.51 -54.5,122.25 -121.8,122.25"
           style="fill:#6cd4ff;fill-opacity:1;fill-rule:nonzero;stroke:none"
           id="path979" /></g><g
         id="g981"
         transform="scale(1.39418)"><path
           d="m 16281.1,7321.3 h -611.5 c -10.4,0 -18.8,8.42 -18.8,18.81 v 20.43 c 0,10.39 8.4,18.81 18.8,18.81 h 611.5 c 10.4,0 18.9,-8.42 18.9,-18.81 v -20.43 c 0,-10.39 -8.5,-18.81 -18.9,-18.81"
           style="fill:#ffffff;fill-opacity:1;fill-rule:nonzero;stroke:none"
           id="path983" /></g><g
         id="g985"
         transform="scale(1.37615)"><path
           d="m 16281,7160.47 h -406.2 c -10.5,0 -19,8.5 -19,19.04 v 20.71 c 0,10.53 8.5,19.03 19,19.03 h 406.2 c 10.5,0 19,-8.5 19,-19.03 v -20.71 c 0,-10.54 -8.5,-19.04 -19,-19.04"
           style="fill:#ffffff;fill-opacity:1;fill-rule:nonzero;stroke:none"
           id="path987" /></g><g
         id="g989"
         transform="scale(1.42684)"><path
           d="m 16281.6,6906.1 h -427.5 c -10.2,0 -18.4,8.2 -18.4,18.36 v 19.98 c 0,10.16 8.2,18.36 18.4,18.36 h 427.5 c 10.2,0 18.4,-8.2 18.4,-18.36 v -19.98 c 0,-10.16 -8.2,-18.36 -18.4,-18.36"
           style="fill:#ffffff;fill-opacity:1;fill-rule:nonzero;stroke:none"
           id="path991" /></g><g
         id="g993"
         transform="scale(1.4972)"><path
           d="m 16282.5,6581.57 h -604.1 c -9.7,0 -17.5,7.81 -17.5,17.5 v 19.03 c 0,9.69 7.8,17.5 17.5,17.5 h 604.1 c 9.6,0 17.5,-7.81 17.5,-17.5 v -19.03 c 0,-9.69 -7.9,-17.5 -17.5,-17.5"
           style="fill:#ffffff;fill-opacity:1;fill-rule:nonzero;stroke:none"
           id="path995" /></g><g
         id="g997"
         transform="scale(1.4972)"><path
           d="M 16282.5,6817.54 H 15326 c -9.7,0 -17.5,7.85 -17.5,17.52 v 19.02 c 0,9.68 7.8,17.52 17.5,17.52 h 956.5 c 9.6,0 17.5,-7.84 17.5,-17.52 v -19.02 c 0,-9.67 -7.9,-17.52 -17.5,-17.52"
           style="fill:#ffffff;fill-opacity:1;fill-rule:nonzero;stroke:none"
           id="path999" /></g><g
         id="g1001"
         transform="scale(1.41303)"><path
           d="m 16281.5,6718.75 h -821 c -10.2,0 -18.5,8.35 -18.5,18.61 v 20.17 c 0,10.19 8.3,18.54 18.5,18.54 h 821 c 10.2,0 18.5,-8.35 18.5,-18.54 v -20.17 c 0,-10.26 -8.3,-18.61 -18.5,-18.61"
           style="fill:#ffffff;fill-opacity:1;fill-rule:nonzero;stroke:none"
           id="path1003" /></g><g
         id="g1005"
         transform="scale(1.4972)"><path
           d="m 16282.5,6341.05 h -775 c -9.7,0 -17.6,7.88 -17.6,17.57 v 19.03 c 0,9.62 7.9,17.5 17.6,17.5 h 775 c 9.6,0 17.5,-7.88 17.5,-17.5 v -19.03 c 0,-9.69 -7.9,-17.57 -17.5,-17.57"
           style="fill:#ffffff;fill-opacity:1;fill-rule:nonzero;stroke:none"
           id="path1007" /></g><path
         d="m 9184.48,3887.6 c 0,0 3784.82,-628 3830.22,-600.8 45.4,27.2 535.5,2142 535.5,2142 0,0 -3129.8,562.7 -3180.5,562.7 -50.7,0 -731.4,-544.5 -740.48,-580.9 -9.07,-36.3 -444.74,-1523 -444.74,-1523"
         style="fill:#183658;fill-opacity:1;fill-rule:nonzero;stroke:none"
         id="path1009" /><g
         id="g1011"
         transform="scale(1.55852)"><path
           d="m 13300.8,2149.67 c 58.2,-5.78 2999.2,57.23 2999.2,57.23 l -221.3,676.54 c 0,0 -407.7,616.48 -623.2,605.25 -81.2,-4.23 -314.5,22.72 -585.3,49.73 -446.5,44.46 -995.1,88.93 -1132.8,-6.55 -221.1,-153.41 -419.1,-31.12 -524,-398 -104.8,-366.89 -186.6,-407.95 -104.9,-629.12 81.6,-221.11 192.3,-355.08 192.3,-355.08"
           style="fill:#183658;fill-opacity:1;fill-rule:nonzero;stroke:none"
           id="path1013" /></g><path
         d="m 9535.57,3511.2 c 0,-861.9 698.43,-1560.6 1560.03,-1560.6 861.6,0 1560.1,698.7 1560.1,1560.6 0,861.9 -698.5,1560.6 -1560.1,1560.6 -861.6,0 -1560.03,-698.7 -1560.03,-1560.6"
         style="fill:#1a1a1a;fill-opacity:1;fill-rule:nonzero;stroke:none"
         id="path1015" /><path
         d="m 10010.2,3511.2 c 0,-599.7 486,-1085.8 1085.4,-1085.8 599.5,0 1085.5,486.1 1085.5,1085.8 0,599.7 -486,1085.8 -1085.5,1085.8 -599.4,0 -1085.4,-486.1 -1085.4,-1085.8"
         style="fill:#9e9da2;fill-opacity:1;fill-rule:nonzero;stroke:none"
         id="path1017" /><path
         d="m 10369.7,3511.2 c 0,-401.1 325,-726.2 725.9,-726.2 401,0 726,325.1 726,726.2 0,401 -325,726.1 -726,726.1 -400.9,0 -725.9,-325.1 -725.9,-726.1"
         style="fill:#d8d9dd;fill-opacity:1;fill-rule:nonzero;stroke:none"
         id="path1019" /><g
         id="g1021"
         transform="scale(1.51332)"><path
           d="m 14238.2,2320.2 c 0,-569.54 461.5,-1031.24 1030.9,-1031.24 569.3,0 1030.9,461.7 1030.9,1031.24 0,569.54 -461.6,1031.24 -1030.9,1031.24 -569.4,0 -1030.9,-461.7 -1030.9,-1031.24"
           style="fill:#1a1a1a;fill-opacity:1;fill-rule:nonzero;stroke:none"
           id="path1023" /></g><g
         id="g1025"
         transform="scale(1.4842)"><path
           d="m 14837.3,2365.71 c 0,-404.05 327.5,-731.56 731.3,-731.56 404,0 731.4,327.51 731.4,731.56 0,404.06 -327.4,731.58 -731.4,731.58 -403.8,0 -731.3,-327.52 -731.3,-731.58"
           style="fill:#9e9da2;fill-opacity:1;fill-rule:nonzero;stroke:none"
           id="path1027" /></g><g
         id="g1029"
         transform="scale(1.46215)"><path
           d="m 15307,2401.4 c 0,-274.32 222.3,-496.67 496.5,-496.67 274.2,0 496.5,222.35 496.5,496.67 0,274.25 -222.3,496.6 -496.5,496.6 -274.2,0 -496.5,-222.35 -496.5,-496.6"
           style="fill:#d8d9dd;fill-opacity:1;fill-rule:nonzero;stroke:none"
           id="path1031" /></g><g
         id="g1033"
         transform="scale(1.63931)"
         style="fill:#7510f7;fill-opacity:1"><path
           d="m 16280.4,3047.86 c -80.4,530.53 -340.5,641.98 -1109.9,795.82 -849,169.83 -1926.7,723.48 -1926.7,723.48 0,0 -1838.2,900.62 -2288.5,1004.02 -450.3,103.33 -1557.7,73.81 -2487.85,66.43 -930.15,-7.39 -1476.47,-265.79 -1948.93,-634.9 -472.44,-369.12 -1291.87,-649.6 -1291.87,-649.6 l -148.86,-26.6 c -153.08,-27.33 -264.54,-160.5 -264.54,-315.99 V 2693.99 c 0,-149.08 100.41,-279.44 244.53,-317.51 l 537.99,-142.07 c 43.81,-7.56 84.55,23.55 89.38,67.77 58.92,538.58 524.53,947.9 1079.76,947.23 590.37,-0.67 1074.47,-485.75 1074.11,-1076.18 0,-67.04 -6.23,-132.68 -18.06,-196.37 -12.2,-65.75 38.31,-126.33 105.16,-126.33 h 4951.18 c 96.2,0 171,84.55 158.2,179.89 -6.1,45.88 -9.4,92.67 -9.5,140.25 -1.8,583.11 469.8,1066.54 1052.8,1078.56 604.4,12.44 1098.2,-473.74 1098.2,-1075.27 0,-39.83 -2.2,-79.18 -6.4,-117.85 -12,-109.62 72.8,-205.58 183,-205.58 h 712 c 129.5,0 234.4,104.92 234.4,234.37 v 689.62 c 0,91.44 -5.9,182.88 -19.6,273.34"
           style="fill:#7510f7;fill-opacity:1;fill-rule:nonzero;stroke:none"
           id="path1035" /></g><path
         d="m 7941.86,6319.2 h 961.27 c 82.34,0 138.12,-83.9 106.29,-159.8 l -107.98,-257.7 c -102.95,-245.6 -343.26,-405.4 -609.58,-405.4 h -350 c -68.51,0 -124.05,55.5 -124.05,124 v 574.9 c 0,68.5 55.54,124 124.05,124"
         style="fill:#cf283c;fill-opacity:1;fill-rule:nonzero;stroke:none"
         id="path1037" /><g
         id="g1039"
         transform="scale(1.62236)"><path
           d="m 15508.1,3648.89 c 326.3,-49.93 702.1,-358.92 702.1,-358.92 89.8,-96.53 15.7,-253.27 -115.9,-244.95 l -636.3,40.19 c -132.1,8.38 -244.8,98.74 -281.7,225.96 -61.9,213.64 -9.2,389.99 331.8,337.72"
           style="fill:#f3fcff;fill-opacity:1;fill-rule:nonzero;stroke:none"
           id="path1041" /></g><path
         d="m 7896.03,4336 c -66.18,1.6 -113.08,-64.9 -88.67,-126.4 69.03,-174 217.11,-310.8 406.43,-360.8 l 988.19,-261 c 80.48,-13.9 155.31,43.3 164.19,124.5 18.3,167.4 58.24,327.7 116.56,478.9 19.76,51.2 -17.51,106.5 -72.39,107.8 l -1514.31,37"
         style="fill:#7510f7;fill-opacity:1;fill-rule:nonzero;stroke:none"
         id="path1043" /><g
         id="g1045"
         transform="scale(1.64563)"
         style="fill:#7510f6;fill-opacity:1"><path
           d="m 15123.8,2387.66 c -45.6,1.16 -80.9,-38.89 -75,-84.16 6.4,-50.25 9.8,-101.54 9.8,-153.56 0,-44.05 -2.4,-87.5 -7.1,-130.28 -13.2,-121.11 80.6,-227.27 202.4,-227.27 h 787 c 143.1,0 259.1,116 259.1,259.11 v 203.63 c 0,57.79 -46.1,104.95 -103.9,106.4 l -1072.3,26.13"
           style="fill:#7510f6;fill-opacity:1;fill-rule:nonzero;stroke:none"
           id="path1047" /></g><g
         id="g1049"
         transform="scale(1.33387)"
         style="fill:#4b0082"><path
           d="m 15906.7,2928.18 -61.2,1.5 c 35.4,1044.11 331.6,2096.24 381.5,2266.87 -172.8,94.47 -1336.5,728.11 -2126.7,1094.12 -673.4,311.87 -1411.1,344.11 -1687.4,344.11 -36.2,0 -64.5,-0.53 -83.7,-1.05 V 3015.52 l -61.2,1.5 v 3616.19 c -77.8,1.49 -299.9,5.17 -593.4,5.17 -746.4,0 -1953.45,-23.77 -2415.27,-167.71 C 8616.24,6270.2 7755.66,5360.96 7650.32,5247.76 l 227.16,-1065.78 c 55.78,2.78 109.91,4.05 162.39,4.05 803.23,0 1224.71,-308.5 1439.58,-578.39 159.23,-200.1 229.55,-403.42 259.92,-528.92 l -64.18,1.58 c -31.41,121.07 -99.86,309.47 -245.6,491.65 -290.81,363.31 -769.42,552.83 -1391.22,552.83 -59.9,0 -121.15,-1.8 -183.68,-5.32 l -26.16,-1.5 -244.63,1147.94 10.57,11.62 c 38.39,42.13 948.15,1033.91 1646.65,1251.63 469.46,146.34 1655.18,171.15 2405.48,171.15 357.8,0 616.6,-5.7 651.6,-6.44 7.8,0.37 48,2.17 113.9,2.17 281.3,0 1029.9,-32.99 1713.9,-349.81 853,-395.09 2139.3,-1100.71 2152.2,-1107.83 l 21.8,-12 -7.3,-23.76 c -3.6,-11.77 -347.7,-1148.32 -386,-2274.45"
           style="fill:#4b0082;fill-opacity:1;fill-rule:nonzero;stroke:none"
           id="path1051" /></g><path
         d="m 9380.84,3818.4 h -0.05 c 1.99,11.9 4.1,23.8 6.31,35.7 h 0.07 c -2.22,-11.9 -4.33,-23.8 -6.33,-35.7"
         style="fill:#e9d7a0;fill-opacity:1;fill-rule:nonzero;stroke:none"
         id="path1053" /><path
         d="m 9366.54,3715.7 c 0.07,0.7 0.15,1.3 0.23,2 -0.08,-0.7 -0.16,-1.3 -0.23,-2 m 0.34,3 c 3.78,33.5 8.43,66.8 13.91,99.7 h 0.05 c -5.5,-32.9 -10.17,-66.2 -13.96,-99.7"
         style="fill:#c6cb99;fill-opacity:1;fill-rule:nonzero;stroke:none"
         id="path1055" /><path
         d="m 9387.17,3854.1 h -0.07 c 3.04,16.3 6.29,32.6 9.75,48.7 h 0.08 c -3.45,-16.1 -6.71,-32.4 -9.76,-48.7"
         style="fill:#182e38;fill-opacity:1;fill-rule:nonzero;stroke:none"
         id="path1057" /><path
         d="m 9226.12,3585.7 c -7.94,0 -16.02,0.7 -24.14,2.1 l -74.07,19.5 -232.64,61.5 -681.48,180 c -189.32,50 -337.4,186.8 -406.43,360.8 l 1589.49,-306.8 c -3.46,-16.1 -6.71,-32.4 -9.75,-48.7 -2.21,-11.9 -4.32,-23.8 -6.31,-35.7 -5.48,-32.9 -10.13,-66.2 -13.91,-99.7 -0.04,-0.3 -0.08,-0.6 -0.11,-1 -0.08,-0.7 -0.16,-1.3 -0.23,-2 -0.13,-1.1 -0.25,-2.3 -0.37,-3.4 v 0 c -7.99,-73 -69.27,-126.6 -140.05,-126.6"
         style="fill:#4b0082;fill-opacity:1;fill-rule:nonzero;stroke:none"
         id="path1059" /><g
         id="g1061"
         transform="scale(1.5201)"><path
           d="m 16294.9,2190.77 c 0,0 0,0 0,0.07 0,-0.07 0,-0.07 0,-0.07 m 0.2,1.58 c 2.1,20.39 3.7,40.92 4.8,61.57 0.1,0 0,0 0.1,0 -1.2,-20.65 -2.8,-41.18 -4.9,-61.57"
           style="fill:#e5c99d;fill-opacity:1;fill-rule:nonzero;stroke:none"
           id="path1063" /></g><g
         id="g1065"
         transform="scale(1.52017)"><path
           d="m 16299.2,2253.82 c 0.3,4.41 0.5,8.75 0.7,13.16 h 0.1 c -0.3,-4.41 -0.5,-8.75 -0.7,-13.16 -0.1,0 0,0 -0.1,0"
           style="fill:#182e38;fill-opacity:1;fill-rule:nonzero;stroke:none"
           id="path1067" /></g><g
         id="g1069"
         transform="scale(1.64563)"
         style="fill:#4b0082"><path
           d="m 16040.9,1792.39 h -787 c -114.3,0 -203.8,93.28 -203.6,204.78 0,7.42 0.4,14.89 1.2,22.49 0.2,1.33 0.3,2.67 0.5,4.01 0,0 0,0 0,0.06 0,0.42 0.1,0.91 0.1,1.4 2,18.83 3.5,37.79 4.6,56.87 0.2,4.08 0.4,8.09 0.7,12.16 H 16300 v -42.66 c 0,-143.11 -116,-259.11 -259.1,-259.11"
           style="fill:#4b0082;fill-opacity:1;fill-rule:nonzero;stroke:none"
           id="path1071" /></g><g
         id="g1073"
         transform="scale(1.31698)"
         style="fill:#7510f7;fill-opacity:1"><path
           d="m 16272.3,2616.75 c -0.2,67.13 4.5,133.19 14,197.8 11.3,77.68 -46.7,148.07 -125.1,149.97 l -6410.15,156.5 c -69.93,1.67 -120.35,-65.08 -101.29,-132.35 33.26,-117.39 51.11,-241.09 51.03,-368.57 -0.08,-84.59 -7.82,-167.28 -22.7,-247.54 -15.42,-83.83 47.76,-161.36 133.03,-161.36 h 6272.78 c 123.1,0 216.1,108.81 200,230.84 -7.5,57.17 -11.5,115.49 -11.6,174.71"
           style="fill:#7510f7;fill-opacity:1;fill-rule:nonzero;stroke:none"
           id="path1075" /></g><g
         id="g1077"
         transform="scale(1.31474)"><path
           d="m 16300,2621.21 v 0 c 0,1.14 0,2.21 0,3.35 v 0 c 0,-1.14 0,-2.21 0,-3.35"
           style="fill:#182e38;fill-opacity:1;fill-rule:nonzero;stroke:none"
           id="path1079" /></g><g
         id="g1081"
         transform="scale(1.31582)"
         style="fill:#4b0082"><path
           d="m 16098,2213.14 h -5419.5 -858.78 c -76.69,0 -135.51,62.62 -135.43,136.19 0,8.36 0.76,16.8 2.28,25.31 14.89,80.33 22.65,163.09 22.72,247.75 h 6577.21 c 0,-1.14 0,-2.2 0,-3.34 v 0 0 c 0.2,-59.28 4.2,-117.65 11.7,-174.87 1.3,-9.35 1.8,-18.55 1.8,-27.67 -0.1,-110.42 -88.2,-203.37 -202,-203.37"
           style="fill:#4b0082;fill-opacity:1;fill-rule:nonzero;stroke:none"
           id="path1083" /></g><path
         d="m 12025.6,6373.2 h -1053.3 c -24.9,0 -45.2,20.2 -45.2,45.2 v 94.2 c 0,24.9 20.3,45.2 45.2,45.2 h 1053.3 c 24.9,0 45.2,-20.3 45.2,-45.2 v -94.2 c 0,-25 -20.3,-45.2 -45.2,-45.2"
         style="fill:#4b0082;fill-opacity:1;fill-rule:nonzero;stroke:none"
         id="path1085" /><g
         id="g1087"
         transform="scale(1.09677)"
         style="fill:#4b0082"><path
           d="m 16258.8,5726.71 h -960.3 c -22.8,0 -41.2,18.51 -41.2,41.21 v 85.89 c 0,22.7 18.4,41.21 41.2,41.21 h 960.3 c 22.8,0 41.2,-18.51 41.2,-41.21 v -85.89 c 0,-22.7 -18.4,-41.21 -41.2,-41.21"
           style="fill:#4b0082;fill-opacity:1;fill-rule:nonzero;stroke:none"
           id="path1089" /></g><path
         d="m 11128.5,6842.6 4665.5,-44.1 c 0,0 285.6,7.7 324.4,276.4 38.9,268.7 35.6,1419.5 35.6,1419.5 0,0 -33.9,231.1 -255.2,234.1 -134.5,1.8 -1261.7,82.3 -2358,-51.2 -894.3,-109 -1721.6,-517.4 -2348.8,-1144.9 l -331.2,-331.2 c 0,0 -223.4,-354 267.7,-358.6"
         style="fill:#183658;fill-opacity:1;fill-rule:nonzero;stroke:none"
         id="path1091" /><g
         id="g1093"
         transform="scale(1.2822)"><path
           d="m 13003.6,6510.98 v -941.03 c 0,-122.29 93.9,-222.67 212.5,-227.5 l 2859.1,-114.96 c 65.6,-2.65 130,27.06 167.6,82.51 51.3,75.58 57.2,200.05 -199,366.87 -445.5,290.13 -1579,917.64 -1998.4,978.32 -266.8,38.68 -616.1,55.45 -834.7,62.55 -113.3,3.66 -207.1,-89.93 -207.1,-206.76"
           style="fill:#183658;fill-opacity:1;fill-rule:nonzero;stroke:none"
           id="path1095" /></g><g
         id="g1097"
         transform="scale(1.49926)"><path
           d="m 16290.8,5448.56 -16,-14.41 c -8.3,-7.4 -20.7,-7.13 -27.8,0.67 l -284.8,314.16 c -7,7.8 -6.1,20.14 2.2,27.54 l 16,14.41 c 8.2,7.41 20.7,7.14 27.8,-0.66 l 284.8,-314.16 c 7,-7.81 6.1,-20.14 -2.2,-27.55"
           style="fill:#183658;fill-opacity:1;fill-rule:nonzero;stroke:none"
           id="path1099" /></g><g
         id="g1101"
         transform="scale(1.59817)"><path
           d="m 16188.4,5350.76 c -35.7,29.16 -311.9,-92.42 -308.4,-134.78 3.5,-42.3 -192.6,-452.64 -192.6,-452.64 l -339.1,271.25 -0.1,-0.07 c -3,9.82 -35.2,115.32 -36.8,134.16 -1.6,19.83 -58.9,54.5 -85.5,49.36 -26.6,-5.13 22.8,-38.6 26,-44.73 8.8,-16.77 -25.3,-23.03 -25.3,-23.03 0,0 -98,53.94 -100.1,85.66 -2,31.72 -22.2,98.24 -43.4,84.35 -10.9,-7.2 -10.8,-54.38 -7.4,-76.78 -6.3,25.41 -15.2,54.13 -23.9,57.01 -15.9,5.19 -23.8,-15.09 -20.9,-24.97 2.9,-9.95 28.5,-117.82 36.2,-130.03 7.7,-11.82 165.9,-139.72 188.7,-167.5 0,0 438.6,-503.08 469.8,-516.22 27.3,-11.51 125.1,161.81 217.4,276.95 92.3,115.06 357,520.97 245.4,612.01"
           style="fill:#f7a491;fill-opacity:1;fill-rule:nonzero;stroke:none"
           id="path1103" /></g><g
         id="g1105"
         transform="scale(1.70652)"><path
           d="m 15989.3,1546.9 c 0,0 56.4,-55.26 57.7,-75.54 1.3,-20.27 5,-237.56 -18,-257.83 -23.1,-20.28 -90.7,-34.64 -69,-57.43 16.5,-17.29 143,-13.6 226.8,-8.97 24.5,1.35 55.2,197.31 64.9,226.14 14.1,41.78 48.3,136.01 35.5,165.19 -6.2,14.18 -36.1,43.36 -78.1,70.61 -44.2,28.65 -86.5,92.47 -86.5,92.47 l -133.3,-154.64"
           style="fill:#f48c7f;fill-opacity:1;fill-rule:nonzero;stroke:none"
           id="path1107" /></g><g
         id="g1109"
         transform="scale(1.62001)"><path
           d="m 16227.2,1493.94 53.3,-151.17 c 3.9,-23.89 19.5,-82.96 19.5,-104.69 0,-81.61 -366.7,69.26 -284.6,105.43 7.5,3.27 30.8,29.44 33.2,57.22 3.9,42.78 -30.8,96.42 -30.8,96.42 l 209.4,-3.21"
           style="fill:#f7a491;fill-opacity:1;fill-rule:nonzero;stroke:none"
           id="path1111" /></g><g
         id="g1113"
         transform="scale(1.61602)"><path
           d="m 15690.5,4312.82 c 0,0 -26.8,-270.97 -26.8,-275.06 0,-438.42 -86.6,-1294.78 -70.1,-1377.21 40.2,-201.05 472.7,-1226.66 472.7,-1226.66 l 233.7,28.04 -304.6,1227.95 112.1,494.24 158.6,976.97 -575.6,151.73"
           style="fill:#355389;fill-opacity:1;fill-rule:nonzero;stroke:none"
           id="path1115" /></g><g
         id="g1117"
         transform="scale(1.69498)"><path
           d="m 15707.6,3883.36 42.2,-244.9 114.5,-1007.92 435.7,-985.15 c 0,0 -61.3,-143.3 -151.7,-163.42 l -693.5,1011.4 -430.7,1294.18 15.1,287.49 668.4,-191.68"
           style="fill:#466eb6;fill-opacity:1;fill-rule:nonzero;stroke:none"
           id="path1119" /></g><g
         id="g1121"
         transform="scale(1.57996)"><path
           d="m 15953.3,5071.32 331.5,-33.99 c 0,0 15.2,272.73 15.2,402.8 0,157.85 -13.4,361.08 -32.4,356.71 -53.3,-12.28 -125.1,-41.77 -167.9,-100.76 -147.9,-203.86 -146.4,-624.76 -146.4,-624.76"
           style="fill:#3c8f7c;fill-opacity:1;fill-rule:nonzero;stroke:none"
           id="path1123" /></g><g
         id="g1125"
         transform="scale(1.6437)"><path
           d="m 15491.2,5255.95 c -6.7,-46.24 -129.1,-1303.71 -129.1,-1303.71 580.2,-281.19 900.3,-50.07 900.3,-50.07 0,0 -19,882.95 3.8,1003.17 15.1,79.51 33.8,607.9 -17.5,622.68 -65.9,18.98 -141.5,39.18 -223.9,47.76 -70.2,7.3 -343.3,11.56 -392.2,-4.93 0,0 -113.3,-120.4 -141.4,-314.9"
           style="fill:#50bfa5;fill-opacity:1;fill-rule:nonzero;stroke:none"
           id="path1127" /></g><g
         id="g1129"
         transform="scale(1.70918)"><path
           d="m 16181.1,1607.97 c 0,0 -129.9,-366.91 -180.7,-384.63 -13.5,-4.74 -78.3,-16.68 -90.5,-45.4 -3.7,-8.66 0,-37.57 0,-37.57 h 270.7 c 0,0 34.2,161.66 47.8,232.69 0,0 71.6,173.53 63.6,189.33 -7.9,15.8 -110.9,45.58 -110.9,45.58"
           style="fill:#50bfa5;fill-opacity:1;fill-rule:nonzero;stroke:none"
           id="path1131" /></g><g
         id="g1133"
         transform="scale(1.62209)"><path
           d="m 16300,1209.62 -41.9,132.97 c 0,0 -88.1,-37.42 -132.2,-31.19 -44,6.22 -130,31.19 -130,31.19 -175.8,-58.07 -319.8,-86.24 -293.6,-132.97 h 597.7"
           style="fill:#50bfa5;fill-opacity:1;fill-rule:nonzero;stroke:none"
           id="path1135" /></g><g
         id="g1137"
         transform="scale(1.5464)"><path
           d="m 16252,4611.16 c -1.4,0.59 -6.4,4.53 -9.3,6.93 10.9,130.94 9,257.82 -32,300.76 1,2 10,21.14 19.3,40.93 47.5,-36.86 70,-134.7 61.2,-293.58 -0.6,-10.93 -3.7,-19.27 -6.3,-32.85 -13.7,-15.2 -26.2,-24.96 -32.9,-22.19"
           style="fill:#f7a491;fill-opacity:1;fill-rule:nonzero;stroke:none"
           id="path1139" /></g><g
         id="g1141"
         transform="scale(1.70138)"><path
           d="m 16266.3,3805.38 c 0.3,2.59 0.4,5.23 0.1,7.82 -8.2,84.11 -77.8,790.59 -89.6,820.63 -10.6,27.09 -322.8,475.14 -322.8,475.14 l -153.5,-209.77 300.3,-401.85 c 6.7,-25.57 115.1,-502.48 115.1,-502.48 0,0 22.2,-86.87 32.2,-138.94 -4.6,-12.58 -9,-24.39 -13,-34.15 -10,-20.75 -21.7,-37.79 -32.4,-52.13 -13.4,-18.11 -35.6,-57.49 -38.3,-68.07 -3.1,-12.28 -8.9,-37.79 -12.1,-53.13 -3.3,-15.4 -7.7,-33.33 -8.5,-41.67 -0.4,-5.12 -5.6,-15.22 -9.7,-22.4 -6,-10.63 4.2,-23.27 15.8,-19.39 10.9,3.64 19.4,17.81 24.6,26.62 14.8,24.92 22.7,70.42 26.4,68.01 3.7,-2.35 16.6,-79.59 18.7,-88.29 2,-8.75 17.5,-98.38 26.3,-114.78 8.7,-16.4 20.4,-13.64 23.4,-3.35 2.7,8.81 -9.7,134.24 -9.7,134.24 0,0 -1.5,15.99 5.5,10.99 7,-4.99 18.4,-118.84 23.3,-135.54 4.8,-16.63 15.9,-25.5 25.3,-12.1 11.4,16.28 -8.2,137.06 -8.2,137.06 0,0 -2.2,15.22 4.2,13.81 6.5,-1.41 14.6,-98.5 19.6,-106.85 5,-8.41 17.7,-11.4 23.8,2.59 7.1,16.45 -11.3,124.13 -11.3,124.13 0,0 0.9,8.58 4.9,5.7 4,-2.82 16.8,-85.05 25.1,-92.69 7,-6.41 12.9,-0.17 12.9,-0.17 15.3,10.46 -8.2,88.69 -7.9,127.6 0.2,38.85 -17.8,82.58 -12.4,128.89 0.3,2.88 1.3,10.05 1.9,14.52"
           style="fill:#f8a492;fill-opacity:1;fill-rule:nonzero;stroke:none"
           id="path1143" /></g><g
         id="g1145"
         transform="scale(1.68029)"><path
           d="m 16300,4885.77 -270,-181.93 c 0,0 -152.3,227.28 -234,308.16 -102.3,101.35 37.4,411.83 103.3,394.27 147.5,-39.27 400.7,-520.5 400.7,-520.5"
           style="fill:#3c8f7c;fill-opacity:1;fill-rule:nonzero;stroke:none"
           id="path1147" /></g><g
         id="g1149"
         transform="scale(1.61807)"><path
           d="m 16258,5940.21 42,-277.43 c 0,0 -153.2,-330.27 -244.7,-301.65 -76.7,24.04 -29.5,316.3 -29.5,316.3 0,0 41.8,156.98 29.3,235.53 -12.6,78.49 202.9,27.25 202.9,27.25"
           style="fill:#f7a491;fill-opacity:1;fill-rule:nonzero;stroke:none"
           id="path1151" /></g><g
         id="g1153"
         transform="scale(1.61425)"><path
           d="m 16093.1,5926.96 c -12.6,78.67 203.4,27.32 203.4,27.32 l 3.5,-23.05 c -6.3,-15.42 -14.1,-28.62 -23.4,-38.78 -48.3,-52.1 -123.7,-83.38 -188.8,-85.73 6.5,42.43 10.5,87.9 5.3,120.24"
           style="fill:#f47458;fill-opacity:1;fill-rule:nonzero;stroke:none"
           id="path1155" /></g><g
         id="g1157"
         transform="scale(1.62226)"><path
           d="m 16251.3,6316.3 c 6,2.22 48.7,-315.12 -32.2,-402.47 -80.9,-87.28 -238.4,-115.88 -294.9,-47.09 -62.5,76.07 -59.4,417.13 66.4,506.95 125.6,89.82 260.7,-57.39 260.7,-57.39"
           style="fill:#f7a491;fill-opacity:1;fill-rule:nonzero;stroke:none"
           id="path1159" /></g><g
         id="g1161"
         transform="scale(1.63857)"><path
           d="m 15878.8,6478.33 c 96.2,-19.69 158.5,-78.69 181.4,-103.83 43.7,-5.18 103.1,-29.4 164.4,-131.27 75.4,-125.26 19.7,-264.06 -68,-332.1 -87.8,-68.11 -86.6,-146.71 -86.6,-146.71 l -13.9,40.64 c -10.2,30.82 -14.4,63.47 -11,95.81 2.1,19.41 6.3,40.4 14.3,57.62 21,45.46 -45.4,75.67 -64.1,113.51 -14.3,29.11 -15,95.77 -37.6,143.92 l -27,36.75 c 0,0 -62.2,48.63 -123.2,34.91 -60.9,-13.72 -52.2,216 71.3,190.75"
           style="fill:#184655;fill-opacity:1;fill-rule:nonzero;stroke:none"
           id="path1163" /></g><g
         id="g1165"
         transform="scale(1.61645)"><path
           d="m 16218.3,6098.41 c -0.6,-38.85 17.1,-70.65 39.4,-71.08 22.3,-0.37 41,30.81 41.6,69.66 0.7,38.85 -16.9,70.71 -39.3,71.08 -22.4,0.37 -41,-30.81 -41.7,-69.66"
           style="fill:#f7a491;fill-opacity:1;fill-rule:nonzero;stroke:none"
           id="path1167" /></g><g
         id="g1169"
         transform="scale(1.59529)"><path
           d="m 16300,6088.37 -123.9,6.39 c 0,0 0.3,-47.39 54.8,-51.78 66.3,-5.39 69.1,45.39 69.1,45.39"
           style="fill:#ffffff;fill-opacity:1;fill-rule:nonzero;stroke:none"
           id="path1171" /></g><g
         id="g1173"
         transform="scale(1.09961)"
         style="fill:#dc04b4;fill-opacity:1"><path
           d="m 14423.3,11587.4 c 3.7,290.7 242.3,523.3 533,519.7 290.7,-3.7 523.3,-242.3 519.7,-533 -3.7,-290.7 -242.3,-523.3 -532.9,-519.7 -290.8,3.7 -523.4,242.3 -519.8,533 z m -519.2,-418.1 1015,-2014.86 1065.5,1988.56 c 315.4,729.5 -191,1561.7 -985,1594.7 -11.7,0.5 -23.5,0.8 -35.3,0.9 -11.9,0.2 -23.7,0.2 -35.4,0 -794.7,-13 -1321.8,-832.2 -1024.8,-1569.3"
           style="fill:#dc04b4;fill-opacity:1;fill-rule:nonzero;stroke:none"
           id="path1175" /></g><g
         id="g1177"
         transform="scale(1.90058)"><path
           d="M 16234,883.891 H 967.274 c -36.467,0 -66.032,29.569 -66.032,66.032 v 16.416 c 0,36.461 29.565,66.031 66.032,66.031 H 16234 c 36.4,0 66,-29.57 66,-66.031 v -16.416 c 0,-36.463 -29.6,-66.032 -66,-66.032"
           style="fill:#183658;fill-opacity:1;fill-rule:nonzero;stroke:none"
           id="path1179" /></g></g></g></svg>
